Coordinates
version=1
nRows=14
nColumns=24
inDegrees=yes

Units are S.I. units (second, meters, Newtons, ...)
Angles are in degrees.

endheader
time	pelvis_tilt	pelvis_list	pelvis_rotation	pelvis_tx	pelvis_ty	pelvis_tz	hip_flexion_r	hip_adduction_r	hip_rotation_r	knee_angle_r	ankle_angle_r	subtalar_angle_r	mtp_angle_r	hip_flexion_l	hip_adduction_l	hip_rotation_l	knee_angle_l	ankle_angle_l	subtalar_angle_l	mtp_angle_l	lumbar_extension	lumbar_bending	lumbar_rotation
      0.97466667	     -0.71157944	      0.49966137	      4.85178724	     -0.07972570	      1.00635820	      0.28648984	    -17.32440214	      2.73866461	     -4.48696467	     -5.52498152	      7.80855127	     -3.01984521	      3.83071360	     18.67654748	      3.84813727	      8.64099030	      0.05580233	      3.28873152	     -4.40553793	     -2.11311216	    -11.76152422	      5.14320305	      2.92637358
      0.97883333	     -0.80326781	      0.53975179	      4.82526101	     -0.07398551	      1.00565133	      0.28610051	    -17.25168537	      2.64212895	     -4.54412532	     -6.17452659	      7.83743853	     -2.88787283	      3.91448603	     18.74501798	      3.97786541	      8.75191389	     -0.10926880	      3.27252799	     -4.27218723	     -2.11467950	    -11.62406110	      5.05621910	      2.94727133
      0.98300000	     -0.82437588	      0.60500285	      4.80287629	     -0.06821728	      1.00506681	      0.28569886	    -17.24190503	      2.52250469	     -4.63589003	     -6.85264428	      7.85694128	     -2.69492303	      4.05137407	     18.71017831	      4.12925613	      8.93006589	     -0.28890792	      3.11353383	     -4.30845480	     -2.11046535	    -11.57748819	      4.96066650	      2.88502073
      0.98716667	     -0.83537560	      0.68370050	      4.78408557	     -0.06243537	      1.00451205	      0.28527571	    -17.22596902	      2.38703478	     -4.72795014	     -7.56420010	      7.84495639	     -2.52130384	      4.23952925	     18.66095354	      4.29803586	      9.15258331	     -0.53039061	      2.90726019	     -4.43991124	     -2.09687398	    -11.54906367	      4.86879719	      2.81978580
      0.99133333	     -0.83663616	      0.76964009	      4.76856568	     -0.05663649	      1.00400245	      0.28485034	    -17.19794501	      2.24363404	     -4.82679643	     -8.31939453	      7.80844610	     -2.34531000	      4.49637586	     18.60432195	      4.47617636	      9.38236970	     -0.83844961	      2.64796781	     -4.64358339	     -2.07312437	    -11.52274698	      4.75435418	      2.74445788
      0.99550000	     -0.81129831	      0.85144347	      4.75814402	     -0.05082775	      1.00356448	      0.28445160	    -17.20860465	      2.11977438	     -4.84199356	     -9.03587266	      7.62566209	     -2.41520827	      4.56007501	     18.55405104	      4.64991750	      9.50965406	     -1.27177363	      2.44743662	     -4.70747312	     -2.06815099	    -11.53934238	      4.65322940	      2.70657148
      0.99966667	     -0.86664653	      0.94040911	      4.76991012	     -0.04500671	      1.00302530	      0.28396273	    -17.07547984	      1.96774164	     -4.97592334	     -9.86998793	      7.44551646	     -2.31507113	      9.85510092	     18.53279704	      4.84961700	      9.93282662	     -1.62544164	      1.94518056	     -5.29750537	     -1.44077991	    -11.44260491	      4.52063181	      2.62932060
      1.00383333	     -0.83209906	      1.06298494	      4.74045664	     -0.03917149	      1.00262686	      0.28353613	    -17.00637571	      1.77307993	     -5.09181933	    -10.78394062	      7.37570996	     -2.09123511	      9.94474057	     18.46633925	      5.06409751	     10.05127994	     -2.13700937	      1.68272206	     -5.48971483	     -1.44312913	    -11.46304150	      4.37391684	      2.49548931
      1.00800000	     -0.85402597	      1.15859627	      4.73386877	     -0.03334179	      1.00217943	      0.28308281	    -16.85802519	      1.61133708	     -5.18059928	    -11.71729286	      7.19604138	     -2.00355673	     10.10279748	     18.46108853	      5.26406868	     10.26969554	     -2.67415940	      1.31740102	     -5.86094691	     -1.44047716	    -11.40965574	      4.24988600	      2.40642050
      1.01216667	     -0.83860305	      1.26381410	      4.72752891	     -0.02750727	      1.00182249	      0.28263357	    -16.74449066	      1.44807987	     -5.22745089	    -12.64293127	      6.88507573	     -2.10408319	     13.30160669	     18.40031364	      5.47213208	     10.55591531	     -3.20681905	      0.87289354	     -6.41689361	     -1.25081508	    -11.41149038	      4.11390764	      2.34625647
      1.01633333	     -0.83861533	      1.38661631	      4.71582873	     -0.02163954	      1.00145397	      0.28216357	    -16.56193563	      1.24485167	     -5.37476980	    -13.68539017	      6.63345698	     -1.92931599	     13.39543117	     18.38593916	      5.69613800	     10.65730789	     -3.82525811	      0.52619406	     -6.68296592	     -1.25496562	    -11.38131946	      3.96591446	      2.20409405
      1.02050000	     -0.84919357	      1.48895635	      4.70927873	     -0.01580298	      1.00109254	      0.28168224	    -16.34423568	      1.06704515	     -5.47613587	    -14.75692728	      6.31540899	     -1.88217627	     13.57774357	     18.38545019	      5.90493832	     10.83951889	     -4.46052370	      0.13096240	     -7.13789984	     -1.25767010	    -11.34584120	      3.84392163	      2.09721041
      1.02466667	     -0.83314720	      1.61834752	      4.68995567	     -0.00994757	      1.00080417	      0.28122627	    -16.12650786	      0.85608110	     -5.58381218	    -15.88062715	      5.93877865	     -1.85939687	     13.81591562	     18.34366309	      6.13143598	     10.99140051	     -5.08708904	     -0.26415987	     -7.57504490	     -1.26119919	    -11.34000216	      3.68451430	      1.98501279
      1.02883333	     -0.80779057	      1.73702833	      4.68435849	     -0.00411696	      1.00054930	      0.28072588	    -15.89580574	      0.65508756	     -5.70851137	    -17.03233962	      5.51967958	     -1.80167248	     14.26862436	     18.31228511	      6.35756194	     11.16175907	     -5.76781467	     -0.67142087	     -8.13822291	     -1.26605828	    -11.35692854	      3.54766346	      1.86863431
